<svg width="107" height="25" viewBox="0 0 107 25" fill="none" xmlns="http://www.w3.org/2000/svg">
<path d="M100.431 7.4624C103.311 7.4624 105.676 9.93462 105.676 13.1378C105.676 16.3409 103.311 18.8131 100.431 18.8131C98.8613 18.8131 97.7219 18.2327 96.948 17.2438V22.8116H94.1748V7.76337H96.948V9.03172C97.7219 8.04283 98.8613 7.4624 100.431 7.4624ZM99.9146 16.1689C101.634 16.1689 102.903 14.9435 102.903 13.1378C102.903 11.332 101.634 10.1066 99.9146 10.1066C98.2163 10.1066 96.948 11.332 96.948 13.1378C96.948 14.9435 98.2163 16.1689 99.9146 16.1689Z" fill="#B9B9B9"/>
<path d="M88.8617 7.76343H91.6349V18.5122H88.8617V17.3083C88.2168 18.2757 87.0989 18.8132 85.6586 18.8132C83.3798 18.8132 81.5955 17.2223 81.5955 14.3632V7.76343H84.3687V14.0192C84.3687 15.481 85.2501 16.2335 86.497 16.2335C87.8513 16.2335 88.8617 15.4381 88.8617 13.5678V7.76343Z" fill="#B9B9B9"/>
<path d="M79.6443 10.429H77.2151V14.9005C77.2151 16.0614 78.0535 16.0829 79.6443 15.9969V18.5121C75.7533 18.942 74.4419 17.8027 74.4419 14.9005V10.429H72.5717V7.76332H74.4419V5.59207L77.2151 4.75366V7.76332H79.6443V10.429Z" fill="#B9B9B9"/>
<path d="M68.3126 9.6121C68.8715 8.15027 70.2259 7.54834 71.5802 7.54834V10.644C70.1399 10.472 68.3126 11.1169 68.3126 13.3742V18.5121H65.5394V7.76332H68.3126V9.6121Z" fill="#B9B9B9"/>
<path d="M60.2515 7.76337H63.0247V18.5121H60.2515V17.2438C59.4776 18.2112 58.3167 18.8131 56.7474 18.8131C53.8882 18.8131 51.5235 16.3409 51.5235 13.1378C51.5235 9.93462 53.8882 7.4624 56.7474 7.4624C58.3167 7.4624 59.4776 8.06433 60.2515 9.03172V7.76337ZM57.2633 16.1689C58.9831 16.1689 60.2515 14.9435 60.2515 13.1378C60.2515 11.332 58.9831 10.1066 57.2633 10.1066C55.565 10.1066 54.2967 11.332 54.2967 13.1378C54.2967 14.9435 55.565 16.1689 57.2633 16.1689Z" fill="#B9B9B9"/>
<path d="M50.4631 10.429H48.0339V14.9005C48.0339 16.0614 48.8723 16.0829 50.4631 15.9969V18.5121C46.572 18.942 45.2607 17.8027 45.2607 14.9005V10.429H43.3904V7.76332H45.2607V5.59207L48.0339 4.75366V7.76332H50.4631V10.429Z" fill="#B9B9B9"/>
<path d="M37.2999 10.816C37.2999 12.4068 42.8462 11.4179 42.8462 15.3735C42.8462 17.6952 40.8255 18.8131 38.5252 18.8131C36.3755 18.8131 34.7847 17.9102 34.0107 16.2549L36.4185 14.9006C36.7194 15.782 37.4503 16.2979 38.5252 16.2979C39.4066 16.2979 40.0086 15.9969 40.0086 15.3735C40.0086 13.8042 34.4622 14.6641 34.4622 10.8805C34.4622 8.68776 36.3325 7.4624 38.5467 7.4624C40.288 7.4624 41.7929 8.25781 42.6313 9.74114L40.2665 11.031C39.9441 10.3431 39.3421 9.93462 38.5467 9.93462C37.8588 9.93462 37.2999 10.2356 37.2999 10.816Z" fill="#B9B9B9"/>
<path d="M8.37401 14.2845L3.5173 19.1911C2.84248 19.8728 1.73955 19.8679 1.07075 19.1803C0.416432 18.5076 0.424904 17.4337 1.08975 16.7713L7.60125 10.2843C8.30634 9.58186 9.44635 9.58072 10.1528 10.2817L13.2335 13.3385L18.4019 8.10249H14.8887C13.9746 8.10249 13.2335 7.36141 13.2335 6.44724C13.2335 5.53307 13.9746 4.79199 14.8887 4.79199H22.3689C23.3683 4.79199 24.1784 5.60213 24.1784 6.60148V14.0141C24.1784 14.9656 23.4071 15.7369 22.4556 15.7369C21.5041 15.7369 20.7328 14.9656 20.7328 14.0141V10.5009L14.7388 16.4679C13.9021 17.3008 12.5533 17.3126 11.7021 16.4944L9.38999 14.2719C9.10479 13.9978 8.65231 14.0034 8.37401 14.2845Z" fill="#B9B9B9"/>
</svg>
