<svg width="118" height="26" viewBox="0 0 118 26" fill="none" xmlns="http://www.w3.org/2000/svg">
<path d="M110.888 7.67456C114.005 7.67456 116.047 9.84581 116.047 12.748C116.047 13.2424 115.961 13.6939 115.875 14.1023H108.179C108.351 15.8221 109.791 16.725 111.404 16.725C112.672 16.725 113.618 16.1876 114.284 15.4997L115.832 17.3485C114.478 18.6383 113.08 19.1542 111.275 19.1542C107.663 19.1542 105.277 16.639 105.277 13.4359C105.277 10.2328 107.62 7.67456 110.888 7.67456ZM110.866 10.0178C109.49 10.0178 108.415 10.8347 108.179 12.2105H113.317V12.189C113.209 10.8347 112.178 10.0178 110.866 10.0178Z" fill="#B9B9B9"/>
<path d="M97.0817 7.93249H98.7155V4.94434H101.424V7.93249H104.025V10.1682H101.424V15.0482C101.424 16.1016 101.94 16.639 102.951 16.639C103.273 16.639 103.81 16.596 104.305 16.2735V18.7243C103.81 18.9822 103.144 19.1542 102.22 19.1542C99.9839 19.1542 98.6295 17.8429 98.6295 15.4566V10.1682H97.0817V7.93249Z" fill="#B9B9B9"/>
<path d="M84.7396 7.93262H87.5343V14.2529C87.5343 15.8222 88.4587 16.6606 89.7486 16.6606C91.4899 16.6606 92.2638 15.0698 92.2638 13.5865V7.93262H95.0584V18.8964H92.3713V17.3915C91.6833 18.5309 90.6085 19.1543 88.9961 19.1543C86.4164 19.1543 84.7396 17.4775 84.7396 14.5754V7.93262Z" fill="#B9B9B9"/>
<path d="M75.8151 7.93249H77.4489V4.94434H80.1576V7.93249H82.7588V10.1682H80.1576V15.0482C80.1576 16.1016 80.6735 16.639 81.6839 16.639C82.0064 16.639 82.5438 16.596 83.0382 16.2735V18.7243C82.5438 18.9822 81.8774 19.1542 80.953 19.1542C78.7172 19.1542 77.3629 17.8429 77.3629 15.4566V10.1682H75.8151V7.93249Z" fill="#B9B9B9"/>
<path d="M70.9928 18.8963V7.9326H73.7874V18.8963H70.9928ZM72.3686 3.18164C73.25 3.18164 73.9809 3.82657 73.9809 4.75096C73.9809 5.67536 73.25 6.34178 72.3686 6.34178C71.4442 6.34178 70.7563 5.67536 70.7563 4.75096C70.7563 3.82657 71.4442 3.18164 72.3686 3.18164Z" fill="#B9B9B9"/>
<path d="M61.8123 7.93249H63.4461V4.94434H66.1548V7.93249H68.756V10.1682H66.1548V15.0482C66.1548 16.1016 66.6708 16.639 67.6811 16.639C68.0036 16.639 68.541 16.596 69.0355 16.2735V18.7243C68.541 18.9822 67.8746 19.1542 66.9502 19.1542C64.7145 19.1542 63.3601 17.8429 63.3601 15.4566V10.1682H61.8123V7.93249Z" fill="#B9B9B9"/>
<path d="M56.3583 19.1542C54.3805 19.1542 52.6822 18.2299 51.8438 16.682L53.7356 15.2847C54.3375 16.2306 55.1759 16.897 56.3583 16.897C57.3902 16.897 58.0136 16.5315 58.0136 15.9511C58.0136 15.2632 57.4332 14.9837 55.6489 14.3818C53.4131 13.6294 52.2093 12.748 52.2093 10.9422C52.2093 9.0504 54.0581 7.67456 56.4228 7.67456C58.2286 7.67456 59.7119 8.53446 60.4213 9.84581L58.551 11.2002C58.0996 10.4477 57.4117 9.91031 56.3798 9.91031C55.4984 9.91031 54.832 10.3188 54.832 10.9207C54.832 11.5011 55.4124 11.8021 57.1107 12.404C59.196 13.1564 60.6363 13.8874 60.6363 15.8866C60.6363 17.7354 58.895 19.1542 56.3583 19.1542Z" fill="#B9B9B9"/>
<path d="M39.5233 7.93253H42.2104V9.43736C42.8984 8.29799 43.9732 7.67456 45.5856 7.67456C48.1653 7.67456 49.8421 9.35137 49.8421 12.2535V18.8963H47.0474V12.576C47.0474 11.0067 46.123 10.1683 44.8331 10.1683C43.0918 10.1683 42.3179 11.7376 42.3179 13.2424V18.8963H39.5233V7.93253Z" fill="#B9B9B9"/>
<path d="M33.5401 18.8963V7.9326H36.3347V18.8963H33.5401ZM34.9159 3.18164C35.7973 3.18164 36.5282 3.82657 36.5282 4.75096C36.5282 5.67536 35.7973 6.34178 34.9159 6.34178C33.9915 6.34178 33.3036 5.67536 33.3036 4.75096C33.3036 3.82657 33.9915 3.18164 34.9159 3.18164Z" fill="#B9B9B9"/>
<path fill-rule="evenodd" clip-rule="evenodd" d="M6.97579 1.18936C2.98586 3.12298 0.234619 7.21174 0.234619 11.9431C0.234619 18.5391 5.58172 23.8862 12.1777 23.8862C16.9091 23.8862 20.9979 21.1349 22.9315 17.1449H12.1888L12.1777 17.1449C9.32261 17.1449 7.00473 14.8447 6.97608 11.9964H6.97579V1.18936ZM23.9558 13.9328C24.0643 13.2857 24.1208 12.621 24.1208 11.9431C24.1208 5.3471 18.7737 0 12.1777 0C11.4998 0 10.835 0.0564877 10.1879 0.165013V7.1352C10.8009 6.88122 11.4729 6.74105 12.1777 6.74105C15.0507 6.74105 17.3797 9.07003 17.3797 11.943C17.3797 12.6478 17.2395 13.3198 16.9855 13.9328H23.9558Z" fill="#B9B9B9"/>
</svg>
