<svg width="106" height="24" viewBox="0 0 106 24" fill="none" xmlns="http://www.w3.org/2000/svg">
<path d="M101.594 19.1779C101.881 18.7337 102.046 18.2464 102.089 17.7161C102.132 17.1858 102.153 16.6627 102.153 16.1468C101.737 16.6771 101.229 17.0497 100.627 17.2647C100.025 17.4796 99.3727 17.5871 98.6705 17.5871C97.8536 17.5871 97.1441 17.4653 96.5422 17.2217C95.9546 16.978 95.4888 16.6054 95.1449 16.1038C94.8009 15.6452 94.5644 15.1077 94.4354 14.4915C94.3065 13.8609 94.242 13.1801 94.242 12.4492V6.08594H97.2731V12.0838C97.2731 12.4707 97.3018 12.8505 97.3591 13.2231C97.4308 13.5814 97.5741 13.8824 97.7891 14.126C98.133 14.642 98.7565 14.8999 99.6594 14.8999C100.089 14.8999 100.491 14.8139 100.863 14.642C101.236 14.4556 101.53 14.169 101.745 13.7821C101.931 13.4524 102.046 13.1085 102.089 12.7502C102.132 12.3776 102.153 11.9763 102.153 11.5463V6.08594H105.206V15.3944C105.206 15.9103 105.199 16.4406 105.184 16.9852C105.184 17.5155 105.141 18.0386 105.055 18.5545C104.984 19.0705 104.847 19.5721 104.647 20.0593C104.446 20.5466 104.167 20.9981 103.808 21.4137C103.307 21.987 102.648 22.4456 101.831 22.7895C101.028 23.1335 100.061 23.2983 98.9284 23.284C98.0972 23.2983 97.2731 23.1836 96.4562 22.94C95.6393 22.7107 94.8869 22.3739 94.199 21.9296L95.1664 19.3499C95.539 19.6222 96.0334 19.873 96.6497 20.1023C97.2803 20.3316 98.0184 20.4463 98.8639 20.4463C99.5519 20.4463 100.111 20.3316 100.541 20.1023C100.985 19.8874 101.336 19.5792 101.594 19.1779Z" fill="#B9B9B9"/>
<path d="M87.6125 14.8998C88.1857 14.8998 88.6372 14.7637 88.9668 14.4914C89.3108 14.2191 89.5186 13.9109 89.5902 13.567H92.7719C92.6715 14.2979 92.4637 14.9142 92.1484 15.4158C91.8331 15.9174 91.439 16.333 90.9661 16.6626C90.5075 16.9923 89.9844 17.2287 89.3968 17.372C88.8092 17.5154 88.2001 17.587 87.5695 17.587C86.6236 17.587 85.7995 17.458 85.0972 17.2001C84.4093 16.9278 83.8361 16.5408 83.3774 16.0392C82.9188 15.5233 82.5677 14.907 82.3241 14.1904C82.0948 13.4595 81.9801 12.6426 81.9801 11.7397C81.9801 10.8655 82.1091 10.0629 82.3671 9.33197C82.625 8.60105 82.9905 7.97762 83.4634 7.46168C83.9507 6.94574 84.5455 6.55162 85.2477 6.27932C85.95 5.99268 86.7526 5.84937 87.6555 5.84937C88.3147 5.84937 88.931 5.92819 89.5042 6.08584C90.0918 6.24349 90.6078 6.48713 91.0521 6.81676C91.5107 7.14638 91.8833 7.56917 92.1699 8.08511C92.4709 8.58672 92.6715 9.18865 92.7719 9.8909H89.5902C89.5186 9.54694 89.3036 9.23881 88.9453 8.96651C88.6013 8.69421 88.1499 8.55806 87.591 8.55806C87.118 8.55806 86.7096 8.64405 86.3656 8.81603C86.0216 8.98801 85.7493 9.22448 85.5487 9.52545C85.348 9.82641 85.2047 10.1704 85.1187 10.5573C85.0328 10.9443 84.9898 11.3527 84.9898 11.7827C84.9898 12.2413 85.0399 12.6641 85.1402 13.051C85.2406 13.4237 85.391 13.7533 85.5917 14.0399C85.7923 14.3122 86.0575 14.5272 86.3871 14.6849C86.7311 14.8282 87.1395 14.8998 87.6125 14.8998Z" fill="#B9B9B9"/>
<path d="M72.7511 7.52633C73.6684 6.42279 74.8006 5.86385 76.1477 5.84952C76.8787 5.83519 77.5236 5.95701 78.0825 6.21498C78.6415 6.45862 79.0929 6.79541 79.4369 7.22536C79.8525 7.72697 80.1391 8.31457 80.2968 8.98816C80.4544 9.64742 80.5332 10.3855 80.5332 11.2024V17.4152H77.4806V11.4389C77.4806 11.0376 77.4376 10.6578 77.3516 10.2995C77.28 9.92689 77.151 9.61159 76.9647 9.35362C76.7783 9.08132 76.5275 8.88067 76.2122 8.75169C75.9113 8.6227 75.5673 8.55821 75.1804 8.55821C74.6931 8.57254 74.2775 8.68003 73.9335 8.88067C73.6039 9.08132 73.3531 9.33929 73.1811 9.65459C73.0091 9.95555 72.8873 10.2995 72.8156 10.6865C72.7583 11.0591 72.7296 11.4389 72.7296 11.8258V17.4152H69.6985V6.08599H72.6007L72.7511 7.52633Z" fill="#B9B9B9"/>
<path d="M62.8805 15.1148C63.3105 15.1148 63.6759 15.0503 63.9769 14.9213C64.2922 14.778 64.5502 14.5487 64.7508 14.2334H67.9324C67.7748 14.821 67.5311 15.3298 67.2015 15.7597C66.8862 16.1897 66.4993 16.5408 66.0407 16.8131C65.5964 17.0854 65.1019 17.2861 64.5573 17.415C64.0127 17.5297 63.4394 17.587 62.8375 17.587C61.0031 17.587 59.6129 17.0711 58.667 16.0392C57.7354 15.0073 57.2697 13.5598 57.2697 11.6967C57.2697 10.8511 57.3915 10.07 57.6351 9.35346C57.8931 8.63688 58.2514 8.02062 58.71 7.50468C59.1686 6.9744 59.7347 6.56595 60.4083 6.27932C61.0962 5.99268 61.8773 5.84937 62.7515 5.84937C63.7691 5.84937 64.6505 6.02851 65.3957 6.3868C66.141 6.7451 66.7286 7.23954 67.1585 7.87013C67.6028 8.4864 67.8966 9.21015 68.0399 10.0414C68.1976 10.8726 68.1976 11.7612 68.0399 12.7071H60.3008C60.3581 13.3807 60.5946 13.9539 61.0102 14.4269C61.4258 14.8855 62.0493 15.1148 62.8805 15.1148ZM65.2237 10.6218C65.2237 10.2635 65.1593 9.94823 65.0303 9.67593C64.9013 9.38929 64.7293 9.15999 64.5143 8.98801C64.2994 8.80169 64.0414 8.66554 63.7404 8.57955C63.4538 8.49356 63.1528 8.45057 62.8375 8.45057C62.0779 8.4649 61.4832 8.67271 61.0532 9.074C60.6376 9.46095 60.394 9.97689 60.3223 10.6218H65.2237Z" fill="#B9B9B9"/>
<path d="M52.6982 16.2543C52.2683 16.7416 51.7523 17.0856 51.1504 17.2862C50.5485 17.4869 49.8964 17.5872 49.1941 17.5872C48.4919 17.5872 47.804 17.4797 47.1304 17.2647C46.4711 17.0354 45.8978 16.6699 45.4106 16.1683C44.866 15.5951 44.4862 14.9358 44.2712 14.1906C44.0562 13.4453 43.9487 12.6786 43.9487 11.8903C43.9487 10.0272 44.4647 8.53671 45.4966 7.41883C45.9408 6.93156 46.5141 6.55177 47.2164 6.27947C47.9329 6.00716 48.6997 5.87818 49.5166 5.89251C50.0469 5.86385 50.6201 5.957 51.2364 6.17198C51.8527 6.38695 52.3829 6.74525 52.8272 7.24685L53.1497 6.08599H55.7724V16.7058C55.7724 17.1644 55.7437 17.6158 55.6864 18.0601C55.6434 18.5187 55.5646 18.9558 55.4499 19.3715C55.3353 19.8014 55.1633 20.2099 54.934 20.5968C54.676 21.0698 54.3607 21.4711 53.9881 21.8007C53.6298 22.1303 53.2285 22.4026 52.7842 22.6176C52.3399 22.8469 51.867 23.0117 51.3654 23.112C50.8638 23.2124 50.355 23.2625 49.8391 23.2625C49.1798 23.2625 48.5492 23.1837 47.9473 23.026C47.3453 22.8827 46.7936 22.6391 46.292 22.2951C45.8047 21.9655 45.3962 21.5427 45.0666 21.0268C44.7513 20.5108 44.5435 19.8946 44.4432 19.178H47.6678C47.7251 19.522 47.9544 19.8301 48.3557 20.1024C48.757 20.3747 49.2443 20.5108 49.8176 20.5108C50.4338 20.5108 50.9354 20.389 51.3224 20.1454C51.7237 19.9017 52.0246 19.5793 52.2253 19.178C52.4259 18.7767 52.5549 18.3181 52.6122 17.8021C52.6696 17.2862 52.6982 16.7703 52.6982 16.2543ZM49.8821 14.9C50.355 14.9 50.7706 14.814 51.1289 14.642C51.5015 14.47 51.8025 14.2407 52.0318 13.9541C52.2611 13.6531 52.4331 13.3092 52.5477 12.9222C52.6624 12.5209 52.7197 12.0981 52.7197 11.6539C52.7197 10.7653 52.4689 10.0344 51.9673 9.4611C51.48 8.8735 50.7778 8.57254 49.8606 8.5582C49.3876 8.5582 48.9648 8.6442 48.5922 8.81618C48.2339 8.98816 47.9329 9.21746 47.6893 9.5041C47.46 9.79073 47.288 10.1275 47.1734 10.5145C47.0587 10.9014 47.0014 11.3171 47.0014 11.7613C47.0014 12.2343 47.0587 12.6642 47.1734 13.0512C47.3023 13.4238 47.4887 13.7534 47.7323 14.0401C47.9759 14.3124 48.2769 14.5274 48.6352 14.685C48.9935 14.8283 49.4091 14.9 49.8821 14.9Z" fill="#B9B9B9"/>
<path d="M39.6225 16.0177C39.1926 16.591 38.6695 16.9994 38.0532 17.2431C37.4369 17.4867 36.7204 17.6014 35.9035 17.587C34.8572 17.5584 33.983 17.2646 33.2808 16.7056C32.9081 16.3903 32.6143 16.0177 32.3994 15.5878C32.1987 15.1435 32.0984 14.6204 32.0984 14.0184C32.1127 13.4022 32.2489 12.8576 32.5068 12.3846C32.7791 11.8973 33.1876 11.4961 33.7322 11.1808C34.1908 10.9371 34.7068 10.7651 35.28 10.6648C35.8676 10.5645 36.5054 10.5143 37.1933 10.5143H39.515C39.558 9.81208 39.3932 9.28897 39.0206 8.94501C38.6623 8.58672 38.1535 8.40041 37.4943 8.38608C37.2793 8.38608 37.0572 8.40041 36.8278 8.42907C36.5985 8.45773 36.3836 8.51506 36.1829 8.60105C35.9966 8.68704 35.8318 8.80886 35.6885 8.96651C35.5595 9.10983 35.4735 9.28897 35.4305 9.50395H32.3134C32.385 8.81603 32.5713 8.24276 32.8723 7.78415C33.1876 7.3112 33.5817 6.93141 34.0547 6.64477C34.5276 6.35814 35.0507 6.1575 35.624 6.04284C36.2116 5.91386 36.8135 5.84937 37.4298 5.84937C37.7737 5.84937 38.1249 5.87086 38.4832 5.91386C38.8415 5.94252 39.1926 6.01418 39.5365 6.12883C39.8805 6.22916 40.203 6.37247 40.5039 6.55879C40.8192 6.73076 41.113 6.96007 41.3853 7.24671C41.8726 7.80564 42.1736 8.45057 42.2882 9.18149C42.4172 9.89807 42.4745 10.6003 42.4602 11.2882V17.415H39.687L39.6225 16.0177ZM39.515 12.4061H37.3008C37.0858 12.4061 36.8422 12.4276 36.5699 12.4706C36.2976 12.5136 36.0611 12.5924 35.8605 12.7071C35.6598 12.8217 35.4878 12.9722 35.3445 13.1585C35.2155 13.3448 35.151 13.5742 35.151 13.8465C35.151 14.0758 35.194 14.2764 35.28 14.4484C35.3803 14.6204 35.5022 14.7637 35.6455 14.8783C35.8031 14.993 35.9894 15.0861 36.2044 15.1578C36.4194 15.2151 36.6344 15.2438 36.8493 15.2438C37.265 15.2581 37.6519 15.1865 38.0102 15.0288C38.3828 14.8712 38.7053 14.649 38.9776 14.3624C39.1496 14.1331 39.2786 13.8751 39.3646 13.5885C39.4649 13.2875 39.515 12.8934 39.515 12.4061Z" fill="#B9B9B9"/>
<path fill-rule="evenodd" clip-rule="evenodd" d="M23.8667 12.6255C23.7452 14.7479 23.059 16.8039 21.8734 18.5783C20.5611 20.5424 18.6958 22.0731 16.5135 22.9771C14.3312 23.881 11.9298 24.1175 9.61311 23.6567C7.29638 23.1959 5.16832 22.0584 3.49805 20.3881C1.82778 18.7179 0.690315 16.5898 0.229488 14.2731C-0.231338 11.9564 0.00517475 9.55499 0.909118 7.37268C1.81306 5.19037 3.34384 3.32512 5.30787 2.01279C7.08227 0.827176 9.1383 0.140983 11.2606 0.0195312V6.01068C10.3211 6.11876 9.41722 6.44892 8.62547 6.97795C7.64346 7.63411 6.87807 8.56674 6.4261 9.65789C5.97413 10.749 5.85587 11.9497 6.08629 13.1081C6.3167 14.2665 6.88543 15.3305 7.72057 16.1656C8.5557 17.0008 9.61973 17.5695 10.7781 17.7999C11.9365 18.0303 13.1371 17.9121 14.2283 17.4601C15.3194 17.0081 16.2521 16.2427 16.9082 15.2607C17.4373 14.469 17.7674 13.5651 17.8755 12.6255H23.8667Z" fill="#B9B9B9"/>
<path fill-rule="evenodd" clip-rule="evenodd" d="M17.9114 0H13.026V5.97153H17.9114V10.8571H23.883V5.97153H23.8834V0H22.7906H17.9114Z" fill="#B9B9B9"/>
</svg>
